<svg width="339" height="339" viewBox="0 0 339 339" fill="none" xmlns="http://www.w3.org/2000/svg">
<g clip-path="url(#clip0)">
<path d="M217.842 114.894C217.078 114.892 216.34 114.59 215.766 114.015C214.616 112.866 214.612 111.01 215.756 109.866L247.612 78.0098C248.756 76.8663 250.612 76.8708 251.761 78.0199C252.91 79.169 252.914 81.025 251.771 82.1686L219.914 114.025C219.342 114.597 218.579 114.868 217.842 114.894Z" fill="#EC7B6C"/>
<path d="M219.187 129.144L200.609 110.567L213.224 101.399C214.941 100.175 217.261 100.372 218.738 101.849L227.877 110.988C229.354 112.465 229.551 114.84 228.327 116.502L219.187 129.144Z" fill="#E06452"/>
<path d="M121.091 229.757L134.65 216.198L113.556 195.103L77.0159 231.643L81.9681 236.595L82.1587 236.404L85.6337 239.988L85.2525 240.369C84.1089 241.513 84.1134 243.369 85.2626 244.518C85.8371 245.093 86.5748 245.395 87.339 245.397C88.1032 245.398 88.8394 245.1 89.4112 244.528L89.738 244.201L98.1107 252.792L121.091 229.757Z" fill="#EC7B6C"/>
<path d="M224.635 147.171C229.209 142.597 229.191 135.173 224.594 130.577L205.059 111.041L199.204 105.186C194.608 100.59 187.184 100.572 182.609 105.146L138.691 149.065L106.97 180.785L108.913 182.728L148.968 222.783L161.221 210.53L160.772 205.671L165.332 206.419L173.01 198.741L172.808 194.182L177.122 194.629L184.855 186.897L185.227 183.076L188.966 182.785L222.647 149.104L224.607 147.144L224.635 147.171Z" fill="#EC7B6C"/>
<path d="M109.235 259.342L80.0145 230.122L70.4111 220.518C67.7298 217.837 63.3628 217.826 60.6945 220.495L57.3182 223.871C54.6226 226.566 54.6605 230.906 57.3418 233.587L65.1394 241.385C65.1394 241.385 65.1394 241.385 65.1668 241.412L96.1658 272.412C98.8471 275.093 103.214 275.103 105.882 272.435L109.259 269.059C111.954 266.418 111.944 262.051 109.235 259.342Z" fill="#E06452"/>
<path d="M161.072 228.135L109.635 176.697L101.646 168.708C98.527 165.589 93.4504 165.577 90.3464 168.681L86.4528 172.574C83.3488 175.678 83.3612 180.755 86.4802 183.874L96.2751 193.669C96.2751 193.669 96.2751 193.669 96.2478 193.642L145.879 243.273C148.998 246.392 154.075 246.404 157.179 243.3L161.072 239.407C164.204 236.33 164.191 231.254 161.072 228.135Z" fill="#E06452"/>
<path d="M180.101 173.866C178.952 172.717 177.096 172.712 175.952 173.856C174.809 174.999 174.813 176.855 175.962 178.005L184.909 186.897L189.048 182.758L180.101 173.866Z" fill="#99372A"/>
<path d="M168.257 185.71C167.108 184.561 165.252 184.556 164.108 185.7C162.965 186.844 162.969 188.7 164.118 189.849L173.038 198.768L177.176 194.629L168.257 185.71Z" fill="#99372A"/>
<path d="M156.44 197.527C155.291 196.378 153.435 196.373 152.291 197.517C151.148 198.66 151.152 200.516 152.301 201.666L161.248 210.558L165.387 206.419L156.44 197.527Z" fill="#99372A"/>
<path d="M153.149 134.607L195.147 176.604L161.221 210.53L165.36 206.392L173.038 198.713L177.176 194.575L184.909 186.842L189.021 182.731L222.647 149.104L224.607 147.144C229.182 142.57 229.164 135.146 224.567 130.549L205.059 111.041L199.204 105.186C194.608 100.59 187.184 100.572 182.609 105.146L138.691 149.065L153.149 134.607Z" fill="#85F19F"/>
</g>
<defs>
<clipPath id="clip0">
<rect width="178.723" height="300" fill="white" transform="translate(212.132) rotate(45)"/>
</clipPath>
</defs>
</svg>
